<svg width="42" height="42" viewBox="0 0 42 42" fill="none" xmlns="http://www.w3.org/2000/svg" xmlns:xlink="http://www.w3.org/1999/xlink">
<circle cx="20" cy="22" r="18" stroke="#FFFFFF" stroke-width="1.5" stroke-miterlimit="3.999327"/>
<path d="M21.5,14C21.5,13.172 20.828,12.5 20,12.5C19.172,12.5 18.5,13.172 18.5,14L21.5,14ZM25.168,27.248C25.857,27.708 26.789,27.521 27.248,26.832C27.708,26.143 27.521,25.211 26.832,24.752L25.168,27.248ZM20.445,22.297L19.613,23.545L20.445,22.297ZM18.5,14L18.5,21.465L21.5,21.465L21.5,14L18.5,14ZM19.613,23.545L25.168,27.248L26.832,24.752L21.277,21.049L19.613,23.545ZM18.5,21.465C18.5,22.301 18.918,23.081 19.613,23.545L21.277,21.049C21.416,21.142 21.5,21.298 21.5,21.465L18.5,21.465Z" fill="#FFFFFF"/>
<path d="M29,1.5C28.172,1.5 27.5,2.172 27.5,3C27.5,3.828 28.172,4.5 29,4.5L29,1.5ZM39,4.5C39.828,4.5 40.5,3.828 40.5,3C40.5,2.172 39.828,1.5 39,1.5L39,4.5ZM29,4.5L39,4.5L39,1.5L29,1.5L29,4.5Z" transform="rotate(73.74 34 3)" fill="#FFFFFF"/>
<line x1="21.5" y1="0" x2="21.5" y2="4" stroke="#FFFFFF" stroke-width="1.5" stroke-miterlimit="3.999327" stroke-linecap="round"/>
<path d="M28.764,38.5C27.936,38.5 27.264,39.172 27.264,40C27.264,40.828 27.936,41.5 28.764,41.5L28.764,38.5ZM33.236,41.5C34.064,41.5 34.736,40.828 34.736,40C34.736,39.172 34.064,38.5 33.236,38.5L33.236,41.5ZM28.764,41.5L33.236,41.5L33.236,38.5L28.764,38.5L28.764,41.5Z" transform="rotate(126.87 31 40)" fill="#FFFFFF"/>
<path d="M6.764,38.5C5.936,38.5 5.264,39.172 5.264,40C5.264,40.828 5.936,41.5 6.764,41.5L6.764,38.5ZM11.236,41.5C12.064,41.5 12.736,40.828 12.736,40C12.736,39.172 12.064,38.5 11.236,38.5L11.236,41.5ZM6.764,41.5L11.236,41.5L11.236,38.5L6.764,38.5L6.764,41.5Z" transform="rotate(233.13 9 40)" fill="#FFFFFF"/>
<path d="M1,1.5C0.172,1.5 -0.5,2.172 -0.5,3C-0.5,3.828 0.172,4.5 1,4.5L1,1.5ZM11,4.5C11.828,4.5 12.5,3.828 12.5,3C12.5,2.172 11.828,1.5 11,1.5L11,4.5ZM1,4.5L11,4.5L11,1.5L1,1.5L1,4.5Z" transform="rotate(286.26 6 3)" fill="#FFFFFF"/>
</svg>
