<svg width="594" height="786" viewBox="0 0 594 786" fill="none" xmlns="http://www.w3.org/2000/svg" xmlns:xlink="http://www.w3.org/1999/xlink">
<path d="M241.055,332.951C240.449,334.065 238.669,345.341 245.657,345.341C246.877,345.343 248.057,344.927 248.983,344.169C249.907,343.409 250.513,342.359 250.691,341.211C252.167,328.573 243.487,328.613 241.055,332.951ZM303.985,332.785C304.377,337.163 304.897,341.045 309.497,341.045C310.719,341.047 311.899,340.631 312.823,339.873C313.749,339.115 314.355,338.065 314.533,336.915C314.625,334.257 314.319,331.601 313.621,329.027C311.103,324.607 303.335,325.681 303.985,332.785ZM273.605,372.681C274.951,372.681 286.625,372.143 289.361,370.121C290.185,369.543 290.097,368.427 290.097,367.395C289.837,355.679 288.647,343.999 286.539,332.455C286.539,331.835 285.975,331.711 285.627,331.793C285.281,331.877 285.107,332.455 285.151,333.445C285.151,336.833 284.847,337.989 286.105,356.945C286.929,369.335 286.583,365.867 286.843,367.931C282.773,369.351 278.595,370.469 274.343,371.277C271.523,371.855 273.519,372.681 273.605,372.681ZM287.321,401.261C284.101,402.903 280.549,403.875 276.905,404.111C276.721,404.111 276.543,404.179 276.413,404.303C276.283,404.427 276.209,404.595 276.209,404.771C276.209,404.947 276.283,405.115 276.413,405.239C276.543,405.363 276.721,405.431 276.905,405.431C278.943,406.129 281.121,406.381 283.277,406.167C285.431,405.953 287.509,405.279 289.351,404.195C291.195,403.111 292.759,401.647 293.925,399.909C295.091,398.171 295.829,396.205 296.087,394.157C296.109,394.073 296.115,393.985 296.103,393.899C296.089,393.813 296.059,393.731 296.013,393.655C295.967,393.581 295.905,393.515 295.833,393.463C295.759,393.411 295.677,393.373 295.587,393.351C295.499,393.329 295.407,393.325 295.317,393.337C295.227,393.349 295.139,393.379 295.061,393.423C294.983,393.467 294.915,393.525 294.859,393.595C294.805,393.663 294.765,393.743 294.741,393.827C292.985,396.873 290.427,399.435 287.321,401.261ZM92.802,82.755C103.955,118.232 143.406,116.497 148.006,119.14C148.006,119.553 157.034,152.635 160.679,157.178C162.719,159.697 167.623,158.706 170.878,158.128C178.517,156.682 187.37,156.228 193.837,151.313C195.486,150.033 194.531,144.829 194.097,143.053C192.716,135.627 190.802,128.3 188.368,121.123C187.411,118.957 186.6,116.737 185.938,114.473C188.933,111.949 192.19,109.721 195.66,107.824C201.385,104.112 206.479,99.585 210.763,94.402C219.049,82.849 222.795,68.888 221.343,54.969C219.891,41.05 213.333,28.062 202.821,18.286C170.661,-11.739 112.505,-1.951 93.626,35.921C87.16,49.054 88.418,68.961 92.802,82.755ZM191.84,149.331C186.068,153.75 177.562,154.328 170.14,155.773C168.144,156.186 163.413,157.302 162.155,155.773C159.699,152.4 157.932,148.617 156.947,144.622C168.189,143.115 179.184,140.256 189.67,136.115C191.089,140.391 191.821,144.846 191.84,149.331ZM189.193,134.421C178.103,136.388 167.213,139.262 156.643,143.012C155.522,138.218 154.072,133.5 152.303,128.887C163.516,127.77 174.513,125.185 184.983,121.205C186.734,125.571 188.184,130.041 189.323,134.586L189.193,134.421ZM96.36,37.201C114.545,1.435 170.14,-7.609 200.521,20.681C210.395,29.898 216.571,42.109 217.983,55.203C219.393,68.296 215.949,81.446 208.245,92.378C200.737,102.455 185.547,109.394 183.204,113.028C182.379,114.308 183.898,117.571 184.853,119.884C179.905,120.792 174.48,121.907 169.62,122.94C168.318,117.282 162.242,94.443 159.985,89.074C159.117,86.926 158.336,87.092 156.035,87.711C143.363,87.711 129.431,84.655 124.961,73.297C124.421,71.966 124.042,70.58 123.833,69.167C123.225,63.22 128.173,56.282 133.641,56.777C132.86,61.32 133.641,69.993 137.721,72.595C141.8,75.197 146.401,71.067 146.401,67.35C146.169,64.67 145.254,62.084 143.733,59.816C142.213,57.549 140.134,55.67 137.677,54.341C138.359,52.866 139.37,51.551 140.64,50.485C141.91,49.42 143.408,48.63 145.031,48.17C146.653,47.71 148.361,47.592 150.037,47.823C151.712,48.054 153.315,48.629 154.733,49.509C151.305,55.869 154.733,70.448 160.809,67.02C166.885,63.592 164.889,55.167 161.113,50.5C159.29,48.228 158.9,48.848 159.811,48.187C166.885,43.272 174.914,48.972 178.3,56.447C183.16,66.731 172.744,79.41 166.148,83.251C165.986,83.344 165.871,83.494 165.826,83.668C165.781,83.842 165.811,84.027 165.909,84.18C166.007,84.333 166.165,84.443 166.348,84.486C166.531,84.528 166.724,84.5 166.885,84.407C174.958,79.905 185.157,66.648 180.513,55.497C175.869,44.346 164.195,40.051 156.817,46.7C154.959,45.487 152.839,44.686 150.613,44.356C148.386,44.027 146.111,44.176 143.954,44.795C141.796,45.413 139.812,46.484 138.148,47.929C136.483,49.374 135.18,51.155 134.335,53.143C126.263,52.152 119.449,61.114 120.361,69.25C120.851,72.846 122.279,76.268 124.516,79.204C126.752,82.14 129.725,84.497 133.164,86.059C137.243,87.918 151.739,91.304 157.468,89.735C159.464,93.865 166.712,118.108 168.014,123.188C148.744,127.318 152.65,129.259 151.695,126.574C150.567,123.229 149.873,118.314 148.918,117.984C124.961,112.821 103.348,109.022 95.275,81.97C91.326,68.878 90.284,49.467 96.36,37.201ZM136.636,57.603C138.28,58.714 139.654,60.148 140.665,61.808C141.676,63.468 142.3,65.316 142.495,67.226C142.495,68.341 139.847,71.356 138.155,68.052C136.859,64.716 136.398,61.138 136.809,57.603L136.636,57.603ZM157.12,51.284C160.592,54.506 162.762,62.022 158.987,64.211C157.678,62.327 156.831,60.187 156.508,57.95C156.185,55.712 156.394,53.435 157.12,51.284ZM26.92,208.927C44.584,203.681 65.98,208.225 74.226,226.809C88.505,258.279 50.747,274.305 51.138,275.957C52.006,280.087 53.568,287.313 54.219,291.485C54.271,291.835 54.467,292.153 54.764,292.365C55.061,292.579 55.435,292.671 55.803,292.621C56.171,292.571 56.504,292.385 56.728,292.103C56.952,291.819 57.048,291.463 56.997,291.113C56.476,286.983 55.912,281.037 55.304,276.741C61.44,274.399 67.118,271.089 72.1,266.953C102.74,232.549 68.541,189.144 24.837,202.731C17.917,204.651 11.796,208.573 7.325,213.955C2.853,219.335 0.252,225.905 -0.118,232.757C-1.507,249.029 12.121,263.071 34.125,261.253C34.456,261.197 34.757,261.033 34.973,260.787C35.19,260.541 35.309,260.231 35.309,259.911C35.309,259.591 35.19,259.281 34.973,259.035C34.757,258.789 34.456,258.625 34.125,258.569C14.595,259.519 4.135,246.179 6.002,233.375C6.434,227.751 8.673,222.389 12.414,218.015C16.156,213.643 21.22,210.469 26.92,208.927ZM351.075,101.175C351.443,101.268 351.835,101.218 352.165,101.036C352.495,100.854 352.735,100.555 352.833,100.204C352.931,99.854 352.877,99.481 352.687,99.167C352.495,98.853 352.181,98.625 351.813,98.532C333.021,93.493 327.595,77.675 333.671,66.07C336.037,60.887 340.023,56.521 345.085,53.566C350.145,50.611 356.041,49.209 361.969,49.55C394.605,50.335 408.927,78.914 396.689,99.316C388.573,113.276 377.723,117.034 363.835,118.769C363.395,118.827 362.989,119.02 362.675,119.318C362.363,119.616 362.161,120.003 362.099,120.421C361.621,124.22 360.579,131.696 359.799,136.032C359.723,136.377 359.795,136.736 359.999,137.031C360.203,137.325 360.521,137.53 360.883,137.601C361.245,137.673 361.623,137.604 361.933,137.41C362.241,137.217 362.457,136.914 362.533,136.569C363.531,132.109 364.877,126.863 365.787,122.444C372.381,122.107 378.867,120.71 384.971,118.314C399.683,110.054 408.623,97.004 407.451,80.484C404.717,41.703 345.259,27.826 328.159,63.964C321.519,78.666 329.591,96.549 351.075,101.175ZM592.205,294.955C591.707,287.299 588.839,279.955 583.959,273.849C579.265,268.825 573.541,264.765 567.137,261.925C560.733,259.083 553.785,257.519 546.723,257.329C539.533,257.013 532.417,258.829 526.361,262.529C520.303,266.229 515.605,271.627 512.913,277.979C506.099,292.971 514.303,310.441 535.699,315.397C535.889,315.479 536.097,315.521 536.305,315.517C536.515,315.515 536.721,315.469 536.909,315.383C537.097,315.295 537.263,315.171 537.395,315.017C537.527,314.863 537.623,314.683 537.675,314.491C537.725,314.297 537.733,314.097 537.693,313.901C537.655,313.705 537.571,313.521 537.449,313.359C537.327,313.197 537.169,313.063 536.987,312.965C536.803,312.869 536.601,312.811 536.393,312.795C517.731,307.427 512.175,292.145 518.295,280.335C520.661,275.151 524.645,270.785 529.707,267.831C534.769,264.875 540.665,263.473 546.591,263.815C552.611,263.973 558.533,265.293 564.001,267.691C569.469,270.091 574.369,273.521 578.405,277.773C582.469,282.823 584.885,288.897 585.347,295.243C588.429,331.669 547.199,331.793 546.809,334.685C546.287,338.815 545.333,346.083 544.509,350.297C544.433,350.641 544.507,351.001 544.709,351.295C544.913,351.589 545.231,351.795 545.593,351.865C545.957,351.937 546.333,351.869 546.643,351.675C546.953,351.481 547.167,351.179 547.243,350.833C548.285,346.415 549.587,341.127 550.497,336.709C557.103,336.355 563.601,334.959 569.725,332.579C584.219,324.483 593.377,311.639 592.205,294.955ZM73.532,322.791C75.398,315.439 69.8,307.715 64.244,308.335C60.642,307.965 57.013,307.867 53.394,308.047C43.977,310.193 39.55,321.923 48.403,327.663C58.559,334.107 71.709,329.647 73.532,322.791ZM66.805,321.965C65.264,323.189 63.376,323.949 61.38,324.153C49.575,325.723 47.058,315.893 55,312.671L64.331,311.019C68.367,311.351 69.279,319.569 66.805,321.757L66.805,321.965ZM356.197,151.809C346.083,148.298 335.147,159.16 342.309,168.329C349.469,177.497 363.661,177.497 367.741,171.385C371.821,165.272 369.347,156.021 363.877,154.865C363.401,154.658 359.625,153.006 356.197,151.809ZM361.665,168.329C359.723,168.957 357.643,169.098 355.629,168.736C353.613,168.374 351.731,167.522 350.163,166.264C348.881,165.387 347.827,164.243 347.081,162.918C345.823,159.573 350.337,156.145 353.635,155.939L363.009,157.219C366.655,159.077 364.833,167.172 361.665,168.453L361.665,168.329ZM548.459,369.377C547.589,369.005 543.119,367.229 540.819,366.403C530.665,362.893 519.771,373.755 526.931,382.923C534.093,392.091 548.241,392.091 552.365,385.979C556.487,379.867 553.969,370.533 548.459,369.377ZM546.245,383.047C544.303,383.671 542.225,383.809 540.209,383.449C538.195,383.087 536.313,382.237 534.743,380.983C533.473,380.077 532.421,378.923 531.663,377.595C530.447,374.291 534.917,370.863 538.215,370.657L547.589,371.937C551.235,373.673 549.413,381.725 546.245,383.047Z" clip-rule="evenodd" fill-rule="evenodd" fill="#FFFFFF"/>
<path d="M513,597.188C504.32,556.548 470.556,493.938 430.02,477.954L421.86,461.724C421.802,461.606 421.718,461.502 421.614,461.418C421.51,461.334 421.388,461.272 421.256,461.236C421.124,461.202 420.986,461.194 420.85,461.214C420.716,461.234 420.586,461.28 420.472,461.352L411.792,466.68C409.034,449.15 400.618,432.87 387.704,420.094C396.732,406.836 411.184,402.788 426.114,402.17C438.482,401.674 447.596,400.972 454.758,390.894C468.95,370.988 465.608,351.577 448.942,333.075C423.554,304.908 413.572,313.333 401.202,297.763C377.68,268.523 372.342,225.282 337.708,202.773C293.44,174.235 269.57,197.239 260.282,204.343C246.698,196.496 216.405,199.222 203.385,209.836C192.318,218.839 177.649,230.486 171.963,243.495C159.855,270.96 161.157,303.463 143.45,328.367C139.11,334.562 131.688,338.733 126.437,344.597C119.229,353.198 113.097,362.567 108.165,372.516C101.742,384.08 96.838,396.924 102.697,408.902C110.552,424.926 128.129,440.206 146.878,439.05C157.728,438.348 172.094,432.154 182.293,436.242C188.369,438.638 190.712,444.212 195.313,448.88C205.729,459.906 230.033,463.252 243.487,455.612C228.687,473.536 206.119,472.916 166.755,493.566C106.343,525.202 84.296,561.134 77.829,597.932C75.355,609.38 73.53,620.948 72.361,632.582C68.628,692.592 87.768,768.666 149.829,781.262C166.842,784.732 186.329,786.962 203.168,782.956C235.067,775.398 273.128,754.954 301.078,738.352C314.098,730.628 362.272,699.694 384.666,695.648C386.014,706.67 388.934,717.466 393.346,727.738C411.272,762.802 439.958,783.534 480.146,774.53C506.186,768.708 513.608,742.316 514.302,717.04C527.366,690.36 516.994,616.6 513,597.188ZM362.836,403.822C370.562,405.184 375.856,412.082 381.586,417.698C396.732,432.112 407.148,447.558 410.272,467.258C397.73,474.858 389.572,479.648 389.398,479.896C389.224,480.144 383.192,465.524 379.546,463.748C374.092,461.17 369.144,457.72 364.92,453.546C361.664,450.118 357.672,444.088 358.192,439.546C360.5,438.378 363.018,437.636 365.614,437.358L365.614,434.796C352.204,435.168 347.604,446.814 346.388,449.416C345.52,451.276 344.304,453.134 341.528,452.844C338.75,452.556 337.752,449.5 338.794,446.774C339.834,444.048 342.352,432.07 360.102,429.468C360.324,429.438 360.538,429.368 360.732,429.26C360.926,429.15 361.094,429.008 361.23,428.836C361.364,428.666 361.462,428.472 361.518,428.264C361.574,428.058 361.588,427.842 361.556,427.63C361.526,427.42 361.45,427.216 361.336,427.032C361.222,426.848 361.072,426.688 360.892,426.558C360.712,426.43 360.508,426.336 360.29,426.284C360.074,426.23 359.848,426.218 359.626,426.248C355.91,426.696 352.31,427.774 348.992,429.428C346.01,430.812 343.364,432.772 341.22,435.184C339.074,437.594 337.48,440.4 336.536,443.428C334.454,449.086 327.162,446.566 328.898,441.694C330.644,436.952 333.244,432.536 336.58,428.642C340.284,425.282 344.734,422.756 349.6,421.25C353.418,419.764 356.674,420.466 357.542,419.268C358.41,418.07 356.37,414.064 355.328,412.866C349.73,406.506 333.628,411.998 327.466,404.896C323.516,400.228 331.806,400.064 335.148,399.65C344.522,398.658 353.418,402.128 362.836,403.822ZM378.764,506.162C366.358,510.01 353.702,513.088 340.876,515.372C345.216,491.874 348.168,471.718 347.734,464.408C357.846,466.268 369.434,467.588 382.106,469.572C385.534,474.982 387.402,479.524 388.226,480.804L379.806,485.884C379.372,486.422 379.458,484.192 378.764,506.162ZM331.632,625.478C333.554,633.41 334.916,641.452 335.712,649.556C317.918,648.482 304.334,648.69 297.65,648.442C297.91,636.836 298.04,633.242 298.258,630.806C309.21,628.164 320.372,626.382 331.632,625.478ZM263.364,523.756C287.984,523.924 312.572,522.016 336.84,518.058C329.114,557.706 317.354,605.366 311.798,614.906C299.038,581.784 300.34,581.66 263.364,523.756ZM315.444,614.368C322.474,599.376 333.152,554.65 340.268,517.396C353.224,515.086 365.998,511.94 378.504,507.98C377.158,552.584 376.768,608.256 379.59,652.984C371.344,652.282 359.364,651.292 347.734,650.424C346.996,643.734 344.088,620.44 341.614,614.328C340.964,612.676 340.182,612.014 337.274,611.932C330.016,612.234 322.792,613.05 315.66,614.368L315.444,614.368ZM330.938,456.81C326.542,454.364 323.03,450.706 320.868,446.32C322.878,447.126 324.974,447.722 327.118,448.096C327.932,448.966 328.982,449.608 330.152,449.952C331.324,450.294 332.572,450.322 333.758,450.036C335.712,449.458 334.454,449.21 335.494,451.812C335.894,452.86 336.568,453.794 337.452,454.526C338.338,455.258 339.402,455.764 340.548,455.994C341.696,456.226 342.884,456.176 344.004,455.848C345.126,455.522 346.14,454.928 346.952,454.124C348.644,452.68 348.776,450.944 350.814,447.228C352.812,446.856 354.764,446.36 356.674,445.824C361.838,458.71 378.026,464.946 379.156,465.896C360.102,463.21 343.22,461.518 331.154,456.81L330.938,456.81ZM247.74,451.854C258.156,440.372 256.029,432.154 245.309,424.018C223.609,407.828 226.3,412.164 217.186,394.074C206.466,364.711 215.711,318.455 223.653,288.347C225.823,280.087 240.622,271.249 251.385,272.57C266.315,274.387 260.065,281.863 272.826,286.117C275.04,286.733 277.332,287.066 279.638,287.108C279.776,287.149 279.92,287.163 280.062,287.151C280.204,287.139 280.344,287.1 280.47,287.037C280.598,286.973 280.71,286.887 280.802,286.782C280.894,286.677 280.964,286.557 281.006,286.426C281.048,286.296 281.064,286.159 281.052,286.024C281.038,285.888 280.998,285.756 280.932,285.635C280.864,285.514 280.774,285.407 280.664,285.319C280.554,285.232 280.426,285.166 280.29,285.125C273.52,281.262 267.282,276.615 261.715,271.29C264.362,261.006 271.089,255.389 283.718,255.307C292.398,255.307 299.256,261.584 305.418,266.953C312.884,273.438 320.912,290.949 320.304,300.572C318.932,311.722 321.678,322.98 328.074,332.414C332.414,339.6 340.572,345.836 345.434,351.908C348.124,355.294 346.562,370.41 345,377.059C342.96,382.883 338.62,393.992 337.622,396.512C319.48,397.13 320.262,406.382 328.942,410.346C320.826,419.598 300.992,429.882 315.184,442.85C318.222,448.922 323.082,457.222 329.592,459.742C334.212,461.524 338.99,462.906 343.87,463.872C344.826,470.274 341.7,491.46 336.926,516.116C312.018,520.06 286.79,521.87 261.541,521.526C245.874,497.118 230.293,473.99 226.344,470.274C235.112,466.032 242.563,459.682 247.957,451.854L247.74,451.854ZM218.141,473.618C226.821,470.52 222.481,471.058 224.564,472.586C226.647,474.114 240.969,495.714 257.592,521.362C237.888,521.072 215.711,519.668 207.334,518.76C209.852,516.86 203.342,484.232 200.824,480.102C207.117,477.708 212.933,475.6 218.358,473.618L218.141,473.618ZM197.613,481.382C201.181,493.544 203.607,505.982 204.861,518.552C186.134,515.998 167.764,511.47 150.09,505.048C165.235,495.83 181.211,487.91 197.83,481.382L197.613,481.382ZM201.562,779.982C185.287,783.864 166.235,781.592 149.829,778.248C124.18,773.002 106.429,756.688 94.885,735.79C76.527,702.75 71.059,653.646 76.657,619.242C77.786,612.346 79.218,605.53 80.433,598.592C87.334,559.234 112.462,529.58 147.529,507.154C181.945,519.172 205.078,523.384 259.154,523.674C296.608,581.494 297.432,587.276 308.152,615.566C304.854,616.144 289.578,619.078 286.974,621.1C285.932,621.886 285.932,623.454 286.974,648.276C247.479,649.02 208.853,654.884 172.528,677.186C168.188,647.408 173.179,638.406 183.291,621.348C199.175,594.544 196.311,589.588 186.285,574.35C184.633,572.292 183.45,569.928 182.813,567.41C182.813,566.42 178.473,565.056 184.593,575.3C193.273,590.332 195.616,593.884 180.253,619.696C169.012,638.612 164.412,648.318 171.182,678.054C168.144,679.994 164.672,682.184 161.33,684.744C156.225,688.166 151.434,691.992 147.008,696.184C146.922,696.344 146.906,696.528 146.963,696.698C147.02,696.868 147.145,697.01 147.312,697.092C147.479,697.174 147.674,697.19 147.853,697.136C148.032,697.082 148.181,696.962 148.267,696.804C149.612,694.532 172.05,680.284 178.083,677.352C211.761,661.204 248.998,647.244 309.976,651.084C309.208,675.638 311.878,700.18 317.918,724.062C286.582,742.894 242.054,770.4 201.779,779.982L201.562,779.982ZM320.608,722.41C315.032,699.118 312.568,675.252 313.274,651.374C379.156,655.504 358.496,654.182 379.762,655.504C380.544,667.564 381.716,680.656 383.452,692.674C366.438,695.688 335.842,713.448 320.826,722.41L320.608,722.41ZM478.324,771.556C440.002,780.188 412.79,760.282 395.516,726.582C376.42,689.412 379.59,527.97 380.674,486.834L420.342,463.458C473.898,573.524 480.32,583.93 492.342,620.398C507.88,666.862 528.364,760.57 478.542,771.556L478.324,771.556ZM513.304,708.368C512.3,686.252 508.718,664.312 502.628,642.948C488.87,592.026 473.984,566.502 432.798,484.108L434.012,483.49C470.382,501.992 501.196,559.44 509.268,597.808C513.696,617.838 522.158,683.34 513.522,708.368L513.304,708.368Z" clip-rule="evenodd" fill-rule="evenodd" fill="#FFFFFF"/>
</svg>
