<svg width="90" height="84" viewBox="0 0 90 84" fill="none" xmlns="http://www.w3.org/2000/svg" xmlns:xlink="http://www.w3.org/1999/xlink">
<g style="isolation:isolate" filter="url(#filter57_202)">
<path d="M44.724,84C69.697,84 89.941,65.308 89.941,42.25C89.941,19.193 69.697,0.501 44.724,0.501C19.752,0.501 -0.492,19.193 -0.492,42.25C-0.492,65.308 19.752,84 44.724,84Z" clip-rule="evenodd" fill-rule="evenodd" fill="#FFFFFF" stroke="#FFFFFF" stroke-width="3" stroke-miterlimit="3.999327"/>
</g>
<path d="M42.371,54.597L42.334,44.081L37.49,44.081L37.49,39.574L42.334,39.574L42.334,36.57C42.334,32.515 45.034,30.561 48.922,30.561C50.785,30.561 52.385,30.69 52.852,30.747L52.852,34.985L50.155,34.986C48.04,34.986 47.631,35.921 47.631,37.292L47.631,39.574L53.638,39.574L52.024,44.081L47.631,44.081L47.631,54.597L42.371,54.597Z" fill="#4DAC96"/>
<defs>
<filter id="filter57_202" x="-10.491943" y="-9.499023" width="65.216396" height="61.749378" filterUnits="userSpaceOnUse" color-interpolation-filters="sRGB">
<feFlood flood-opacity="0" result="BackgroundImageFix"/>
<feColorMatrix in="SourceAlpha" type="matrix" values="0 0 0 0 0 0 0 0 0 0 0 0 0 0 0 0 0 0 127 0" result="hardAlpha"/>
<feMorphology radius="0" operator="dilate" in="SourceAlpha" result="0dropshadow"/>
<feOffset dx="0" dy="7"/>
<feGaussianBlur stdDeviation="5"/>
<feComposite in2="hardAlpha" operator="out"/>
<feColorMatrix type="matrix" values="0 0 0 0 0.294118 0 0 0 0 0.294118 0 0 0 0 0.294118 0 0 0 0.1 0"/>
<feBlend mode="normal" in2="BackgroundImageFix" result="0dropshadow"/>
<feColorMatrix in="SourceAlpha" type="matrix" values="0 0 0 0 0 0 0 0 0 0 0 0 0 0 0 0 0 0 127 0" result="hardAlpha"/>
<feMorphology radius="0" operator="dilate" in="SourceAlpha" result="1dropshadow"/>
<feOffset dx="0" dy="-7"/>
<feGaussianBlur stdDeviation="5"/>
<feComposite in2="hardAlpha" operator="out"/>
<feColorMatrix type="matrix" values="0 0 0 0 0.294118 0 0 0 0 0.294118 0 0 0 0 0.294118 0 0 0 0.01 0"/>
<feBlend mode="normal" in2="0dropshadow" result="1dropshadow"/>
<feBlend mode="normal" in="SourceGraphic" in2="1dropshadow" result="shape"/>
</filter>
</defs>
</svg>
