<svg width="46" height="38" viewBox="0 0 46 38" fill="none" xmlns="http://www.w3.org/2000/svg" xmlns:xlink="http://www.w3.org/1999/xlink">
<rect  x="1" y="11" width="42" height="24" rx="8" stroke="#FFFFFF" stroke-width="3" stroke-miterlimit="3.999327"/>
<line x1="28.037" y1="24" x2="28.037" y2="28" stroke="#FFFFFF" stroke-width="3" stroke-miterlimit="3.999327" stroke-linecap="round" stroke-linejoin="round"/>
<path d="M18,4L32,4L32,0L18,0L18,4ZM38,10L38,14L42,14L42,10L38,10ZM12,14L12,10L8,10L8,14L12,14ZM32,4C35.314,4 38,6.686 38,10L42,10C42,4.477 37.523,0 32,0L32,4ZM18,0C12.477,0 8,4.477 8,10L12,10C12,6.686 14.686,4 18,4L18,0Z" fill="#FFFFFF"/>
</svg>
