<svg width="2382" height="1156" viewBox="0 0 2382 1156" fill="none" xmlns="http://www.w3.org/2000/svg" xmlns:xlink="http://www.w3.org/1999/xlink">
<g opacity="0.6">
<g opacity="0.2">
<path d="M2091.341,295.241C2070.117,258.492 2045.037,226.067 2016.097,200.127C2006.449,234.714 1992.945,267.139 1977.509,295.241C1956.287,333.069 1930.241,365.495 1900.337,391.435C1909.983,408.729 1917.701,428.183 1923.489,450.881C1930.241,480.063 1934.099,514.649 1934.099,555.721C1934.099,777.291 1823.163,815.121 1659.171,815.121L1256.905,815.121L1256.905,296.321L1544.375,296.321C1678.463,296.321 1776.859,267.139 1808.693,138.52C1811.587,128.792 1813.517,116.903 1815.447,106.095C1791.329,101.772 1766.249,100.691 1741.167,100.691L1039.855,100.691L1039.855,1012.913L1741.167,1012.913C1960.145,1012.913 2152.115,867.001 2152.115,556.803C2152.115,449.799 2128.963,363.333 2091.341,295.241Z" transform="rotate(180 1595.985 556.802)" fill="#FFFFFF"/>
</g>
<g opacity="0.4">
<path d="M1571.595,498.812C1571.595,560.418 1563.877,615.542 1550.373,665.26C1540.725,699.846 1527.221,732.272 1511.785,760.372C1490.563,798.202 1464.517,830.626 1434.613,856.566C1407.601,881.426 1376.733,900.88 1343.933,916.012C1287.983,941.952 1226.245,954.922 1161.613,954.922L791.181,954.922L791.181,761.454L1078.651,761.454C1212.739,761.454 1311.135,732.272 1342.969,603.652C1345.863,593.924 1347.793,582.036 1349.721,571.228C1352.615,549.61 1354.545,525.832 1354.545,498.812C1354.545,277.24 1243.609,239.411 1079.615,239.411L791.181,239.411L791.181,564.742L574.131,564.742L574.131,42.7L1161.613,42.7C1379.627,42.7 1571.595,188.612 1571.595,498.812Z" transform="rotate(180 1072.863 498.811)" fill="#FFFFFF"/>
</g>
</g>
</svg>
