<svg width="2330" height="1004" viewBox="0 0 2330 1004" fill="none" xmlns="http://www.w3.org/2000/svg" xmlns:xlink="http://www.w3.org/1999/xlink">
<path d="M0,95.367C0,61.764 0,44.962 6.54,32.128C12.292,20.838 21.471,11.659 32.761,5.907C45.595,-0.633 62.397,-0.633 96,-0.633L2202.56,-0.633C2260.84,-0.633 2290,-0.633 2306.06,11.52C2320.04,22.106 2328.7,38.288 2329.74,55.803C2330.94,75.908 2314.76,100.152 2282.42,148.641L1847.59,800.499C1838.27,814.469 1833.61,821.455 1827.538,826.737C1822.16,831.415 1815.988,835.099 1809.316,837.611C1801.786,840.449 1793.426,841.235 1776.706,842.805L104.978,999.841C68.579,1003.261 50.379,1004.969 36.322,998.931C23.972,993.627 13.762,984.331 7.326,972.533C0,959.101 0,940.821 0,904.261L0,95.367Z" fill="#4DAC96"/>
</svg>
