<svg width="66" height="68" viewBox="0 0 66 68" fill="none" xmlns="http://www.w3.org/2000/svg" xmlns:xlink="http://www.w3.org/1999/xlink">
<path d="M0,27.45C0,24.973 1.147,22.636 3.106,21.121L28.106,1.785C30.988,-0.444 35.012,-0.444 37.894,1.785L62.894,21.121C64.853,22.636 66,24.973 66,27.45L66,58.062C66,62.481 62.418,66.062 58,66.062L45.421,66.062C44.316,66.062 43.421,65.167 43.421,64.062L43.421,49.644C43.421,47.435 41.63,45.644 39.421,45.644L26.579,45.644C24.37,45.644 22.579,47.435 22.579,49.644L22.579,64.062C22.579,65.167 21.684,66.062 20.579,66.062L8,66.062C3.582,66.062 0,62.481 0,58.062L0,27.45Z" fill="#FFFFFF" stroke="#FFFFFF" stroke-width="1.5" stroke-miterlimit="3.999327"/>
</svg>
