<svg width="56" height="42" viewBox="0 0 56 42" fill="none" xmlns="http://www.w3.org/2000/svg" xmlns:xlink="http://www.w3.org/1999/xlink">
<path d="M14,0C6.268,0 0,5.876 0,13.125L0,28.875C0,36.124 6.268,42 14,42L42,42C49.732,42 56,36.124 56,28.875L56,13.125C56,5.876 49.732,0 42,0L14,0ZM10.761,12.707C10.046,12.287 9.127,12.525 8.707,13.239C8.287,13.954 8.525,14.873 9.239,15.293L24.479,24.257C26.2,25.27 28.335,25.27 30.056,24.257L45.295,15.293C46.009,14.873 46.248,13.954 45.828,13.239C45.408,12.525 44.488,12.287 43.774,12.707L28.535,21.671C27.753,22.131 26.782,22.131 26,21.671L10.761,12.707Z" clip-rule="evenodd" fill-rule="evenodd" fill="#FFFFFF"/>
</svg>
