<svg width="160" height="158" viewBox="0 0 160 158" fill="none" xmlns="http://www.w3.org/2000/svg" xmlns:xlink="http://www.w3.org/1999/xlink">
<path d="M111.519,53.732C120.787,59.106 132.727,58.166 141.067,50.27C149.669,42.96 153.619,18.847 155.025,7.634C155.435,4.364 153.322,1.445 150.303,1.11C139.93,-0.039 117.386,-1.542 108.881,5.772C98.695,13.628 95.355,28.42 100.16,40.393C99.524,40.793 98.924,41.289 98.38,41.881C91.071,49.829 84.736,62.174 80.135,74.251C77.176,69.733 73.447,65.707 69,61.72C71.868,50.804 68.328,38.338 59.49,31.522C51.309,24.488 29.709,25.883 19.596,26.992C16.576,27.323 14.458,30.249 14.871,33.518C16.252,44.449 20.079,67.542 28.35,74.572C36.988,82.749 49.613,83.215 58.789,76.734C64.047,81.557 66.865,85.438 68.573,89.62C69.259,91.299 69.818,93.152 70.254,95.298C73.405,95.126 76.654,95.036 80,95.036C83.948,95.036 87.759,95.162 91.436,95.399C92.632,90.908 94.16,86.147 95.967,81.402C100.214,70.251 105.506,60.495 110.501,55.063C110.884,54.647 111.224,54.201 111.519,53.732ZM160,137.34C160,137.34 137.935,113.344 88.581,110.79C85.807,110.647 82.947,110.571 80,110.571C77.057,110.571 74.201,110.647 71.431,110.79C22.069,113.341 0,137.34 0,137.34L0,157L160,157L160,137.34Z" clip-rule="evenodd" fill-rule="evenodd" fill="#FFFFFF"/>
</svg>
