<svg width="48" height="50" viewBox="0 0 48 50" fill="none" xmlns="http://www.w3.org/2000/svg" xmlns:xlink="http://www.w3.org/1999/xlink">
<path d="M44,4.267L35.6,4.267L35.6,44.267L44,44.267L44,4.267ZM4,4.267L31.6,4.267L31.6,44.267L4,44.267L4,4.267ZM4,0.267C1.791,0.267 0,2.057 0,4.267L0,44.267C0,46.476 1.791,48.267 4,48.267L44,48.267C46.209,48.267 48,46.476 48,44.267L48,4.267C48,2.057 46.209,0.267 44,0.267L4,0.267ZM24.17,22.267C25.274,22.267 26.17,23.162 26.17,24.267C26.17,25.371 25.274,26.267 24.17,26.267L14.428,26.267L16.105,27.944C16.886,28.725 16.886,29.991 16.105,30.772C15.323,31.553 14.057,31.553 13.276,30.772L8.185,25.681C7.404,24.9 7.404,23.633 8.185,22.852L13.276,17.761C14.057,16.98 15.323,16.98 16.105,17.761C16.886,18.542 16.886,19.809 16.105,20.59L14.428,22.267L24.17,22.267Z" clip-rule="evenodd" fill-rule="evenodd" fill="#4DAC96"/>
</svg>
