<svg width="146" height="150" viewBox="0 0 146 150" fill="none" xmlns="http://www.w3.org/2000/svg" xmlns:xlink="http://www.w3.org/1999/xlink">
<path d="M130.873,96.175L75.773,96.175C88.282,95.126 98.108,84.64 98.108,71.86C98.108,58.383 87.183,47.458 73.706,47.458L55.703,47.458C59.81,41.934 62.24,35.089 62.24,27.677C62.24,16.12 56.333,5.943 47.373,0L130.873,0C138.855,0 145.325,6.47 145.325,14.452L145.325,81.723C145.325,89.705 138.855,96.175 130.873,96.175ZM29.052,47.472C39.985,47.472 48.847,38.61 48.847,27.677C48.847,16.745 39.985,7.882 29.052,7.882C18.12,7.882 9.257,16.745 9.257,27.677C9.257,38.61 18.12,47.472 29.052,47.472ZM84.715,71.86C84.715,65.78 79.786,60.851 73.706,60.851L29.056,60.851C13.381,60.851 0.675,73.558 0.675,89.233L0.675,102.149C0.675,107.851 5.297,112.473 10.999,112.473L12.838,112.473L15.859,140.436C16.447,145.877 21.04,150 26.512,150L31.893,150C37.24,150 41.768,146.058 42.505,140.763L50.563,82.868L73.706,82.868C79.786,82.868 84.715,77.94 84.715,71.86Z" clip-rule="evenodd" fill-rule="evenodd" fill="#FFFFFF"/>
</svg>
