<svg width="200" height="150" viewBox="0 0 200 150" fill="none" xmlns="http://www.w3.org/2000/svg" xmlns:xlink="http://www.w3.org/1999/xlink">
<path d="M76.929,48.372L96.989,29.158C106.323,20.217 118.892,16.075 131.363,17.83L157.899,21.563L194.731,0.461C197.11,-0.903 200,0.924 200,3.791L200,75.539C200,80.425 197.777,85.011 194.029,87.854L169.224,106.667L142.38,82.792C147.773,80.765 152.379,77.422 156.179,73.245C159.601,69.482 159.499,63.49 155.949,59.862C152.4,56.234 146.747,56.343 143.324,60.106C140.667,63.027 137.597,64.903 134.004,65.648C130.873,66.298 126.886,66.182 121.873,64.553L115.493,58.879L97.715,74.13C90.731,80.122 80.462,78.841 74.98,71.296C69.888,64.286 70.736,54.304 76.929,48.372ZM64.956,34.328L79.36,20.531C73.245,18.763 66.766,18.401 60.365,19.575L34.143,24.388L5.378,7.979C2.947,6.592 0,8.458 0,11.384L0,75.533C0,80.649 2.387,85.434 6.375,88.316L84.302,144.624C94.39,151.914 107.693,151.779 117.647,144.285L153.441,117.339L115.288,83.405L108.948,88.844C94.167,101.524 72.434,98.814 60.832,82.844C50.054,68.009 51.85,46.883 64.956,34.328Z" clip-rule="evenodd" fill-rule="evenodd" fill="#FFFFFF"/>
</svg>
