<svg width="150" height="152" viewBox="0 0 150 152" fill="none" xmlns="http://www.w3.org/2000/svg" xmlns:xlink="http://www.w3.org/1999/xlink">
<path d="M73.791,0.926C67.833,0.993 62.066,2.193 57.641,4.309C49.978,7.984 7.383,29.309 7.383,29.309C21.778,36.509 59.383,55.309 64.15,57.693C69.341,60.284 78.758,60.293 83.95,57.693L141.233,29.576C141.241,29.576 102.95,10.159 90.975,4.309C85.908,1.834 79.741,0.859 73.791,0.926ZM-0.95,42.593L-0.95,100.409C-0.949,110.484 5.879,121.426 14.935,125.926L65.716,150.926L65.716,75.143C63.408,74.826 59.175,73.559 56.601,72.276L3.737,45.976C0.652,44.443 -0.95,42.593 -0.95,42.593ZM149.05,42.593C149.05,42.593 147.45,44.443 144.366,45.976L91.5,72.276C88.925,73.559 84.691,74.826 82.383,75.143L82.383,150.926L133.166,125.926C142.216,121.426 149.05,110.484 149.05,100.409L149.05,42.593Z" fill="#FFFFFF"/>
</svg>
