<svg width="24" height="14" viewBox="0 0 24 14" fill="none" xmlns="http://www.w3.org/2000/svg" xmlns:xlink="http://www.w3.org/1999/xlink">
<path d="M3.351,0.525C2.536,-0.221 1.271,-0.165 0.525,0.649C-0.221,1.464 -0.165,2.729 0.649,3.475L3.351,0.525ZM12.002,11.16L10.651,12.635C11.415,13.335 12.588,13.335 13.353,12.635L12.002,11.16ZM23.351,3.475C24.165,2.729 24.221,1.463 23.475,0.649C22.729,-0.165 21.463,-0.221 20.649,0.525L23.351,3.475ZM0.649,3.475L10.651,12.635L13.352,9.685L3.351,0.525L0.649,3.475ZM13.353,12.635L23.351,3.475L20.649,0.525L10.651,9.685L13.353,12.635Z" fill="#FFFFFF"/>
</svg>
